<svg width="106" height="34" viewBox="0 0 106 34" fill="none" xmlns="http://www.w3.org/2000/svg">
<path d="M22.6667 17H19.8333M2.83333 17V17C2.83333 23.2592 7.90745 28.3333 14.1667 28.3333H19.8333C26.0926 28.3333 31.1667 23.2592 31.1667 17V17C31.1667 10.7408 26.0925 5.66667 19.8333 5.66667H14.1667C7.90744 5.66667 2.83333 10.7408 2.83333 17Z" stroke="black" stroke-width="3.5" stroke-linecap="round" stroke-linejoin="round"/>
<path d="M47.6591 14.2727V16.0909H42.2727V14.2727H47.6591ZM43.5057 23V13.642C43.5057 13.0095 43.6288 12.4848 43.875 12.0682C44.125 11.6515 44.4659 11.339 44.8977 11.1307C45.3295 10.9223 45.8201 10.8182 46.3693 10.8182C46.7405 10.8182 47.0795 10.8466 47.3864 10.9034C47.697 10.9602 47.928 11.0114 48.0795 11.0568L47.6477 12.875C47.553 12.8447 47.4356 12.8163 47.2955 12.7898C47.1591 12.7633 47.0189 12.75 46.875 12.75C46.5189 12.75 46.2708 12.8333 46.1307 13C45.9905 13.1629 45.9205 13.392 45.9205 13.6875V23H43.5057ZM52.7685 23.1705C51.8859 23.1705 51.1226 22.983 50.4787 22.608C49.8385 22.2292 49.3442 21.7027 48.9957 21.0284C48.6473 20.3504 48.473 19.5644 48.473 18.6705C48.473 17.7689 48.6473 16.9811 48.9957 16.3068C49.3442 15.6288 49.8385 15.1023 50.4787 14.7273C51.1226 14.3485 51.8859 14.1591 52.7685 14.1591C53.651 14.1591 54.4124 14.3485 55.0526 14.7273C55.6965 15.1023 56.1927 15.6288 56.5412 16.3068C56.8897 16.9811 57.0639 17.7689 57.0639 18.6705C57.0639 19.5644 56.8897 20.3504 56.5412 21.0284C56.1927 21.7027 55.6965 22.2292 55.0526 22.608C54.4124 22.983 53.651 23.1705 52.7685 23.1705ZM52.7798 21.2955C53.1813 21.2955 53.5166 21.1818 53.7855 20.9545C54.0545 20.7235 54.2571 20.4091 54.3935 20.0114C54.5336 19.6136 54.6037 19.161 54.6037 18.6534C54.6037 18.1458 54.5336 17.6932 54.3935 17.2955C54.2571 16.8977 54.0545 16.5833 53.7855 16.3523C53.5166 16.1212 53.1813 16.0057 52.7798 16.0057C52.3745 16.0057 52.0336 16.1212 51.7571 16.3523C51.4844 16.5833 51.2779 16.8977 51.1378 17.2955C51.0014 17.6932 50.9332 18.1458 50.9332 18.6534C50.9332 19.161 51.0014 19.6136 51.1378 20.0114C51.2779 20.4091 51.4844 20.7235 51.7571 20.9545C52.0336 21.1818 52.3745 21.2955 52.7798 21.2955ZM62.581 23.1705C61.6984 23.1705 60.9351 22.983 60.2912 22.608C59.651 22.2292 59.1567 21.7027 58.8082 21.0284C58.4598 20.3504 58.2855 19.5644 58.2855 18.6705C58.2855 17.7689 58.4598 16.9811 58.8082 16.3068C59.1567 15.6288 59.651 15.1023 60.2912 14.7273C60.9351 14.3485 61.6984 14.1591 62.581 14.1591C63.4635 14.1591 64.2249 14.3485 64.8651 14.7273C65.509 15.1023 66.0052 15.6288 66.3537 16.3068C66.7022 16.9811 66.8764 17.7689 66.8764 18.6705C66.8764 19.5644 66.7022 20.3504 66.3537 21.0284C66.0052 21.7027 65.509 22.2292 64.8651 22.608C64.2249 22.983 63.4635 23.1705 62.581 23.1705ZM62.5923 21.2955C62.9938 21.2955 63.3291 21.1818 63.598 20.9545C63.867 20.7235 64.0696 20.4091 64.206 20.0114C64.3461 19.6136 64.4162 19.161 64.4162 18.6534C64.4162 18.1458 64.3461 17.6932 64.206 17.2955C64.0696 16.8977 63.867 16.5833 63.598 16.3523C63.3291 16.1212 62.9938 16.0057 62.5923 16.0057C62.187 16.0057 61.8461 16.1212 61.5696 16.3523C61.2969 16.5833 61.0904 16.8977 60.9503 17.2955C60.8139 17.6932 60.7457 18.1458 60.7457 18.6534C60.7457 19.161 60.8139 19.6136 60.9503 20.0114C61.0904 20.4091 61.2969 20.7235 61.5696 20.9545C61.8461 21.1818 62.187 21.2955 62.5923 21.2955ZM73.8878 17.2614V19.1818H68.581V17.2614H73.8878ZM75.9503 23V14.2727H78.2969V15.7955H78.3878C78.5469 15.2538 78.8139 14.8447 79.1889 14.5682C79.5639 14.2879 79.9957 14.1477 80.4844 14.1477C80.6056 14.1477 80.7363 14.1553 80.8764 14.1705C81.0166 14.1856 81.1397 14.2064 81.2457 14.233V16.3807C81.1321 16.3466 80.9749 16.3163 80.7741 16.2898C80.5734 16.2633 80.3897 16.25 80.223 16.25C79.867 16.25 79.5488 16.3277 79.2685 16.483C78.992 16.6345 78.7723 16.8466 78.6094 17.1193C78.4503 17.392 78.3707 17.7064 78.3707 18.0625V23H75.9503ZM88.0938 19.2841V14.2727H90.5142V23H88.1903V21.4148H88.0994C87.9025 21.9261 87.5748 22.3371 87.1165 22.6477C86.6619 22.9583 86.107 23.1136 85.4517 23.1136C84.8684 23.1136 84.3551 22.9811 83.9119 22.7159C83.4688 22.4508 83.1222 22.0739 82.8722 21.5852C82.6259 21.0966 82.5009 20.5114 82.4972 19.8295V14.2727H84.9176V19.3977C84.9214 19.9129 85.0597 20.3201 85.3324 20.6193C85.6051 20.9186 85.9706 21.0682 86.429 21.0682C86.7206 21.0682 86.9934 21.0019 87.2472 20.8693C87.5009 20.733 87.7055 20.5322 87.8608 20.267C88.0199 20.0019 88.0975 19.6742 88.0938 19.2841ZM92.4503 23V14.2727H94.7571V15.8125H94.8594C95.0412 15.3011 95.3442 14.8977 95.7685 14.6023C96.1927 14.3068 96.7003 14.1591 97.2912 14.1591C97.8897 14.1591 98.3991 14.3087 98.8196 14.608C99.2401 14.9034 99.5204 15.3049 99.6605 15.8125H99.7514C99.9295 15.3125 100.251 14.9129 100.717 14.6136C101.187 14.3106 101.742 14.1591 102.382 14.1591C103.196 14.1591 103.857 14.4186 104.365 14.9375C104.876 15.4527 105.132 16.1837 105.132 17.1307V23H102.717V17.608C102.717 17.1231 102.589 16.7595 102.331 16.517C102.073 16.2746 101.751 16.1534 101.365 16.1534C100.926 16.1534 100.583 16.2936 100.337 16.5739C100.09 16.8504 99.9673 17.2159 99.9673 17.6705V23H97.6207V17.5568C97.6207 17.1288 97.4976 16.7879 97.2514 16.5341C97.009 16.2803 96.6889 16.1534 96.2912 16.1534C96.0223 16.1534 95.7798 16.2216 95.5639 16.358C95.3518 16.4905 95.1832 16.678 95.0582 16.9205C94.9332 17.1591 94.8707 17.4394 94.8707 17.7614V23H92.4503Z" fill="black" fill-opacity="0.81"/>
</svg>
