<svg width="64" height="20" viewBox="0 0 64 20" fill="none" xmlns="http://www.w3.org/2000/svg">
<path d="M0.00426134 15V4.81818H1.84872V13.4538H6.3331V15H0.00426134ZM11.1854 15.1491C10.4396 15.1491 9.79332 14.9851 9.24645 14.657C8.69957 14.3288 8.27533 13.8698 7.97372 13.2798C7.67543 12.6899 7.52628 12.0005 7.52628 11.2116C7.52628 10.4228 7.67543 9.73177 7.97372 9.13849C8.27533 8.54522 8.69957 8.08452 9.24645 7.75639C9.79332 7.42827 10.4396 7.2642 11.1854 7.2642C11.9311 7.2642 12.5774 7.42827 13.1243 7.75639C13.6712 8.08452 14.0938 8.54522 14.392 9.13849C14.6937 9.73177 14.8445 10.4228 14.8445 11.2116C14.8445 12.0005 14.6937 12.6899 14.392 13.2798C14.0938 13.8698 13.6712 14.3288 13.1243 14.657C12.5774 14.9851 11.9311 15.1491 11.1854 15.1491ZM11.1953 13.7074C11.5997 13.7074 11.9377 13.5964 12.2095 13.3743C12.4813 13.1489 12.6835 12.8473 12.8161 12.4695C12.9519 12.0916 13.0199 11.6707 13.0199 11.2067C13.0199 10.7393 12.9519 10.3168 12.8161 9.93892C12.6835 9.55777 12.4813 9.2545 12.2095 9.02912C11.9377 8.80374 11.5997 8.69105 11.1953 8.69105C10.781 8.69105 10.4363 8.80374 10.1612 9.02912C9.88944 9.2545 9.68561 9.55777 9.54972 9.93892C9.41714 10.3168 9.35085 10.7393 9.35085 11.2067C9.35085 11.6707 9.41714 12.0916 9.54972 12.4695C9.68561 12.8473 9.88944 13.1489 10.1612 13.3743C10.4363 13.5964 10.781 13.7074 11.1953 13.7074ZM19.693 18.0227C19.0467 18.0227 18.4915 17.9349 18.0275 17.7592C17.5635 17.5869 17.1906 17.3549 16.9089 17.0632C16.6272 16.7715 16.4316 16.4484 16.3223 16.0938L17.943 15.701C18.0159 15.8501 18.122 15.9976 18.2612 16.1435C18.4004 16.2926 18.5877 16.4152 18.823 16.5114C19.0616 16.6108 19.3616 16.6605 19.7228 16.6605C20.2333 16.6605 20.6558 16.5362 20.9906 16.2876C21.3253 16.0424 21.4927 15.638 21.4927 15.0746V13.6278H21.4032C21.3104 13.8134 21.1745 14.004 20.9956 14.1996C20.8199 14.3951 20.5862 14.5592 20.2946 14.6918C20.0062 14.8243 19.6433 14.8906 19.2058 14.8906C18.6191 14.8906 18.0872 14.7531 17.6099 14.478C17.1359 14.1996 16.7581 13.7853 16.4764 13.2351C16.198 12.6816 16.0588 11.9889 16.0588 11.157C16.0588 10.3184 16.198 9.6108 16.4764 9.03409C16.7581 8.45407 17.1376 8.01491 17.6149 7.71662C18.0922 7.41501 18.6241 7.2642 19.2108 7.2642C19.6582 7.2642 20.0261 7.34044 20.3145 7.4929C20.6061 7.64205 20.8381 7.82268 21.0105 8.0348C21.1828 8.24361 21.3137 8.44081 21.4032 8.62642H21.5027V7.36364H23.2775V15.1243C23.2775 15.7772 23.1217 16.3175 22.8102 16.745C22.4986 17.1726 22.0727 17.4924 21.5325 17.7045C20.9922 17.9167 20.3791 18.0227 19.693 18.0227ZM19.7079 13.4787C20.0891 13.4787 20.4139 13.3859 20.6824 13.2003C20.9508 13.0147 21.1547 12.7479 21.2939 12.3999C21.4331 12.0518 21.5027 11.6342 21.5027 11.147C21.5027 10.6664 21.4331 10.2455 21.2939 9.88423C21.158 9.52296 20.9558 9.2429 20.6873 9.04403C20.4222 8.84186 20.0957 8.74077 19.7079 8.74077C19.3069 8.74077 18.9721 8.84517 18.7037 9.05398C18.4352 9.26278 18.233 9.54948 18.0971 9.91406C17.9612 10.2753 17.8933 10.6863 17.8933 11.147C17.8933 11.6143 17.9612 12.0237 18.0971 12.375C18.2363 12.723 18.4402 12.9948 18.7086 13.1903C18.9804 13.3826 19.3135 13.4787 19.7079 13.4787ZM25.122 15V7.36364H26.9217V15H25.122ZM26.0268 6.27983C25.7418 6.27983 25.4965 6.18537 25.291 5.99645C25.0855 5.80421 24.9828 5.57386 24.9828 5.3054C24.9828 5.03362 25.0855 4.80327 25.291 4.61435C25.4965 4.42211 25.7418 4.32599 26.0268 4.32599C26.3152 4.32599 26.5604 4.42211 26.7626 4.61435C26.9681 4.80327 27.0708 5.03362 27.0708 5.3054C27.0708 5.57386 26.9681 5.80421 26.7626 5.99645C26.5604 6.18537 26.3152 6.27983 26.0268 6.27983ZM30.5721 10.5256V15H28.7724V7.36364H30.4925V8.66122H30.582C30.7577 8.23366 31.0378 7.89394 31.4222 7.64205C31.81 7.39015 32.2889 7.2642 32.859 7.2642C33.386 7.2642 33.8451 7.37689 34.2362 7.60227C34.6306 7.82765 34.9355 8.15412 35.1509 8.58168C35.3697 9.00923 35.4774 9.52794 35.4741 10.1378V15H33.6744V10.4162C33.6744 9.90578 33.5418 9.50639 33.2766 9.21804C33.0148 8.92969 32.6519 8.78551 32.1879 8.78551C31.873 8.78551 31.5929 8.85511 31.3477 8.99432C31.1057 9.13021 30.9151 9.32741 30.7759 9.58594C30.64 9.84446 30.5721 10.1577 30.5721 10.5256Z" fill="black"/>
<path d="M50.6666 6.66667L50.6666 6.25003V6.25003C50.6666 5.70823 50.6666 5.43733 50.6928 5.2095C50.9053 3.36248 52.3624 1.90537 54.2095 1.69288C54.4373 1.66667 54.7082 1.66667 55.25 1.66667L56.5 1.66667C58.2074 1.66667 59.0611 1.66667 59.7423 1.92304C60.8204 2.3288 61.6712 3.17961 62.0769 4.25767C62.3333 4.93884 62.3333 5.79256 62.3333 7.5L62.3333 12.5C62.3333 14.2074 62.3333 15.0612 62.0769 15.7423C61.6712 16.8204 60.8204 17.6712 59.7423 18.077C59.0611 18.3333 58.2074 18.3333 56.5 18.3333H55.2499C54.7082 18.3333 54.4373 18.3333 54.2095 18.3071C52.3624 18.0946 50.9053 16.6375 50.6928 14.7905C50.6666 14.5626 50.6666 14.2918 50.6666 13.75V13.75L50.6666 13.3333M45.6666 10H58.1666M58.1666 10L54.8333 6.66667M58.1666 10L54.8333 13.3333" stroke="black" stroke-width="1.5" stroke-linecap="round" stroke-linejoin="round"/>
</svg>
